<svg id="visual" viewBox="0 0 900 600" width="600" height="600" xmlns="http://www.w3.org/2000/svg" xmlns:xlink="http://www.w3.org/1999/xlink" version="1.1"><g transform="translate(437.34545452882287 311.5095062127369)"><path d="M120.9 -212.2C163.7 -184.6 210.5 -166.5 238.5 -132.8C266.5 -99 275.7 -49.5 287 6.5C298.3 62.5 311.5 125 280.5 153.6C249.5 182.2 174.3 176.8 120.1 195.1C66 213.3 33 255.2 4.8 246.9C-23.4 238.6 -46.9 180.2 -82.5 151.3C-118.2 122.4 -166 122.9 -202 102.6C-237.9 82.3 -262 41.2 -270.8 -5.1C-279.6 -51.3 -273.2 -102.7 -241.2 -129.8C-209.2 -156.9 -151.6 -159.9 -107.1 -186.5C-62.7 -213.2 -31.3 -263.6 3.8 -270.2C39 -276.9 78 -239.8 120.9 -212.2" fill="#252526"></path></g></svg>